<svg xmlns="http://www.w3.org/2000/svg" width="452" height="210" viewBox="0 0 452 210"><defs><style>.a{fill:#f6f6f6;}.b{fill:#eaeef4;}.c{fill:#a4a5a8;}.d{fill:#080304;}.e{fill:#ebeef3;}.f{fill:#021c2e;}</style></defs><rect class="a" width="452" height="210"/><g transform="translate(-1056.128 -500.113)"><g transform="translate(1202.128 540.113)"><path class="b" d="M2464.031,2714.207H2420.54l7.614-25.768h27.665Z" transform="translate(-2362.074 -2585.35)"/><path class="b" d="M2464.031,2714.207H2420.54l7.614-25.768h27.665Z" transform="translate(-2362.074 -2585.35)"/><path class="c" d="M2553.351,2698.093l-3.077-9.655H2522.61l-2.853,9.655Z" transform="translate(-2456.53 -2585.35)"/><path class="b" d="M2374.789,3105.112l-26.615-4.714-26.35,4.714v1.538h52.965Z" transform="translate(-2268.095 -2977.541)"/><path class="d" d="M1362.286,635.406V542.782a2.67,2.67,0,0,0-2.67-2.669H1204.8a2.669,2.669,0,0,0-2.67,2.669v92.624Z" transform="translate(-1202.128 -540.113)"/><path class="e" d="M1202.128,2525.991v11.479a2.669,2.669,0,0,0,2.67,2.669h154.819a2.67,2.67,0,0,0,2.67-2.669v-11.479Z" transform="translate(-1202.128 -2430.698)"/><rect class="f" width="148.413" height="83.104" transform="translate(6 6)"/><path class="a" d="M56.661-27.322,31.453-52.536a4.275,4.275,0,0,0-2.63-1.089,4.274,4.274,0,0,0-2.63,1.089L20.951-47.3l6.641,6.641a4.419,4.419,0,0,1,5.593,5.631l6.4,6.4a4.427,4.427,0,0,1,4.572,7.308,4.427,4.427,0,0,1-7.219-4.813L30.966-32.1V-16.39a4.416,4.416,0,0,1,1.17,7.09A5.084,5.084,0,0,1,29.007-8a5.084,5.084,0,0,1-3.129-1.3,4.423,4.423,0,0,1,1.45-7.219V-32.375a4.422,4.422,0,0,1-2.4-5.8L18.378-44.73,1.089-27.439A4.273,4.273,0,0,0,0-24.809a4.273,4.273,0,0,0,1.089,2.63L26.3,3.036a4.274,4.274,0,0,0,2.63,1.089,4.274,4.274,0,0,0,2.63-1.089l25.1-25.1a4.273,4.273,0,0,0,1.089-2.63A4.273,4.273,0,0,0,56.661-27.322Z" transform="translate(51 73)"/></g><path class="c" d="M2741.212,2616.533a2.353,2.353,0,0,1-2.353,2.353h-8.742a2.353,2.353,0,0,1-2.354-2.353h0a2.353,2.353,0,0,1,2.354-2.353h8.742a2.353,2.353,0,0,1,2.353,2.353Z" transform="translate(-1452.427 -1974.542)"/></g></svg>