<svg xmlns="http://www.w3.org/2000/svg" xmlns:xlink="http://www.w3.org/1999/xlink" width="452" height="210" viewBox="0 0 452 210"><defs><style>.a{fill:#f6f6f6;}.b{fill:#414141;font-size:43px;font-family:LucidaGrande, Lucida Grande;}.c{fill:#0b74b8;}.d{fill:#2eaade;}.e{fill:#ebebeb;}.f{opacity:0.2;fill:url(#a);}.f,.h{mix-blend-mode:multiply;isolation:isolate;}.g{fill:#fff;}.h{opacity:0.3;fill:url(#b);}.i{fill:#e44d26;}.j{fill:#f16529;}.k{font-size:23px;font-family:DINBold, DIN;}</style><linearGradient id="a" x1="0.454" y1="0.528" x2="0.073" y2="0.822" gradientUnits="objectBoundingBox"><stop offset="0" stop-color="#fff"/><stop offset="1"/></linearGradient><linearGradient id="b" x1="0" y1="0.5" x2="1" y2="0.5" xlink:href="#a"/></defs><rect class="a" width="452" height="210"/><text class="b" transform="translate(209 122)"><tspan x="0" y="0">+</tspan></text><g transform="translate(-95.462 -73.683)"><g transform="translate(349.941 111.892)"><g transform="translate(0 25.875)"><path class="c" d="M680.861,285.525l-39.474-10.959-8.8-98.667h96.662l-8.807,98.652Z" transform="translate(-632.591 -175.899)"/><path class="d" d="M781.619,279.738l7.526-84.3H749.634v93.17Z" transform="translate(-701.303 -187.368)"/><g transform="translate(18.023 20.329)"><path class="e" d="M682.607,261.725l56.268-24.493,1.084-12.1-58.431,24.494Z" transform="translate(-679.343 -225.13)"/><path class="f" d="M682.607,261.725l56.268-24.493,1.084-12.1-58.431,24.494Z" transform="translate(-679.343 -225.13)"/><path class="e" d="M706.539,225.13h-30.3l.289,3.246.79,8.855h29.264v-12.1Z" transform="translate(-676.237 -225.13)"/><path class="g" d="M777.749,284.447H749.62v12.1h14.9l-1.406,15.694-13.5,3.643v12.589l24.807-6.876Z" transform="translate(-719.318 -259.953)"/><path class="g" d="M749.62,237.837v12.117l29.23-12.723,1.084-12.1Z" transform="translate(-719.318 -225.13)"/><path class="h" d="M749.62,237.837v12.117l29.23-12.723,1.084-12.1Z" transform="translate(-719.318 -225.13)"/><path class="e" d="M681.528,284.447l1.079,12.1h27.08v-12.1Z" transform="translate(-679.343 -259.953)"/><path class="g" d="M779.934,225.13H749.62v12.1h29.23Z" transform="translate(-719.318 -225.13)"/><path class="e" d="M711.968,341.693h0l-13.476-3.639-.862-9.651H685.48l1.7,19,24.787,6.883.005,0Z" transform="translate(-681.664 -285.759)"/></g></g></g><g transform="translate(196.29 110.946)"><g transform="translate(0 26.821)"><path class="i" d="M224.561,285.524l-39.474-10.959-8.8-98.668h96.662l-8.806,98.652Z" transform="translate(-176.29 -175.898)"/><path class="j" d="M325.32,279.738l7.526-84.3H293.334v93.17Z" transform="translate(-245.003 -187.368)"/><path class="g" d="M250.281,236.841h29.188l1.084-12.1H219.936l3.264,36.6h41.94l-1.406,15.693-13.5,3.643h0l-.011,0-13.476-3.639-.862-9.651H223.742l1.7,19,24.788,6.883.056-.016v0l24.765-6.864,3.322-37.151h-44.1l-1.106-12.393h17.118Z" transform="translate(-201.914 -204.571)"/><g transform="translate(18.023 20.168)"><path class="e" d="M255.655,341.3l-.006,0h0l-.011,0-13.476-3.639-.862-9.651H229.152l1.7,19,24.788,6.883.02-.006Z" transform="translate(-225.347 -285.368)"/><path class="e" d="M250.245,261.335v-12.1H234.268l-1.106-12.393h17.082v-12.1H219.936l3.264,36.6h27.044Z" transform="translate(-219.936 -224.74)"/></g></g><text class="k" transform="translate(47.172 17.737)"><tspan x="-30.383" y="0">HTML</tspan></text></g><text class="k" transform="translate(398.462 128.683)"><tspan x="-20.723" y="0">CSS</tspan></text></g></svg>