<svg xmlns="http://www.w3.org/2000/svg" width="452" height="210" viewBox="0 0 452 210"><defs><style>.a{fill:#f6f6f6;}.b{fill:#eaeef4;}.c{fill:#a4a5a8;}.d{fill:#080304;}.e{fill:#ebeef3;}.f{fill:#90be54;}.g{fill:#f3f4f4;}.h{fill:#bdbbb8;}.i{fill:#aeaca8;}.j{fill:#d2d1cf;}.k{fill:#dad9d8;}.l{fill:#fff;}.m{fill:#222;font-size:18px;font-family:DINBold, DIN;letter-spacing:-0.05em;}</style></defs><rect class="a" width="452" height="210"/><g transform="translate(-1056.128 -500.113)"><g transform="translate(1202.128 540.113)"><path class="b" d="M2464.031,2714.207H2420.54l7.614-25.768h27.665Z" transform="translate(-2362.074 -2585.35)"/><path class="b" d="M2464.031,2714.207H2420.54l7.614-25.768h27.665Z" transform="translate(-2362.074 -2585.35)"/><path class="c" d="M2553.351,2698.093l-3.077-9.655H2522.61l-2.853,9.655Z" transform="translate(-2456.53 -2585.35)"/><path class="b" d="M2374.789,3105.112l-26.615-4.714-26.35,4.714v1.538h52.965Z" transform="translate(-2268.095 -2977.541)"/><path class="d" d="M1362.286,635.406V542.782a2.67,2.67,0,0,0-2.67-2.669H1204.8a2.669,2.669,0,0,0-2.67,2.669v92.624Z" transform="translate(-1202.128 -540.113)"/><path class="e" d="M1202.128,2525.991v11.479a2.669,2.669,0,0,0,2.67,2.669h154.819a2.67,2.67,0,0,0,2.67-2.669v-11.479Z" transform="translate(-1202.128 -2430.698)"/><rect class="f" width="148.413" height="83.104" transform="translate(5.872 6.229)"/></g><path class="c" d="M2741.212,2616.533a2.353,2.353,0,0,1-2.353,2.353h-8.742a2.353,2.353,0,0,1-2.354-2.353h0a2.353,2.353,0,0,1,2.354-2.353h8.742a2.353,2.353,0,0,1,2.353,2.353Z" transform="translate(-1452.427 -1974.542)"/><g transform="translate(1250.792 554.39)"><g transform="translate(0 37.587)"><path class="g" d="M2279.362,1956.9c0,1.514-2.491,2.908-6.672,4.015a77.348,77.348,0,0,1-12.563,2h0c-3.782.332-7.943.516-12.31.516-17.424,0-31.548-2.922-31.548-6.527s14.125-6.527,31.548-6.527c4.367,0,8.527.184,12.31.516a77.432,77.432,0,0,1,12.566,2C2276.871,1953.992,2279.362,1955.385,2279.362,1956.9Z" transform="translate(-2216.266 -1934.564)"/><rect class="g" width="63.096" height="15.83" transform="translate(0 6.527)"/><ellipse class="h" cx="31.548" cy="6.527" rx="31.548" ry="6.527"/><path class="i" d="M2873.717,1756.964l16.208,7.915,8.668-3.9Z" transform="translate(-2842.169 -1750.436)"/><path class="j" d="M3142.814,1840.626v15.809a77.4,77.4,0,0,1-12.563,2h0v-15.808Z" transform="translate(-3086.39 -1830.084)"/></g><g transform="translate(0 18.687)"><path class="g" d="M2279.362,1563.047c0,1.514-2.491,2.908-6.672,4.015a77.386,77.386,0,0,1-12.563,2h0c-3.782.332-7.943.516-12.31.516-17.424,0-31.548-2.922-31.548-6.527s14.125-6.527,31.548-6.527c4.367,0,8.527.184,12.31.516a77.365,77.365,0,0,1,12.566,2C2276.871,1560.14,2279.362,1561.533,2279.362,1563.047Z" transform="translate(-2216.266 -1540.712)"/><rect class="g" width="63.096" height="15.83" transform="translate(0 6.527)"/><path class="h" d="M2279.362,1233.614c0,3.605-14.124,6.527-31.548,6.527s-31.548-2.922-31.548-6.527,14.125-6.527,31.548-6.527S2279.362,1230.009,2279.362,1233.614Z" transform="translate(-2216.266 -1227.087)"/><path class="i" d="M2873.717,1363.108l16.208,7.915,8.668-3.9Z" transform="translate(-2842.169 -1356.581)"/><path class="j" d="M3142.814,1446.773v15.808a77.355,77.355,0,0,1-12.563,2h0V1448.77Z" transform="translate(-3086.39 -1436.231)"/></g><g transform="translate(0)"><path class="g" d="M2279.362,1173.608c0,1.514-2.491,2.907-6.672,4.015a77.348,77.348,0,0,1-12.563,2h0c-3.782.332-7.943.516-12.31.516-17.424,0-31.548-2.922-31.548-6.527s14.125-6.527,31.548-6.527c4.367,0,8.527.184,12.31.516a77.4,77.4,0,0,1,12.566,2C2276.871,1170.7,2279.362,1172.094,2279.362,1173.608Z" transform="translate(-2216.266 -1151.273)"/><rect class="g" width="63.096" height="15.83" transform="translate(0 6.527)"/><ellipse class="k" cx="31.548" cy="6.527" rx="31.548" ry="6.527"/><path class="i" d="M2873.717,973.671l16.208,7.915,8.668-3.9Z" transform="translate(-2842.169 -967.144)"/><path class="j" d="M3142.814,1057.334v15.808a77.355,77.355,0,0,1-12.563,2h0v-15.808Z" transform="translate(-3086.39 -1046.792)"/></g></g></g><circle class="l" cx="19" cy="19" r="19" transform="translate(243 86)"/><text class="m" transform="translate(263 110)"><tspan x="-15.381" y="0">SQL</tspan></text></svg>