<svg xmlns="http://www.w3.org/2000/svg" width="452" height="210" viewBox="0 0 452 210"><defs><style>.a{fill:#f6f6f6;}.b{fill:#e44d26;}.c{fill:#f77478;}.d{fill:none;}.e{fill:#fff;}.f{fill:#222;font-size:22px;font-family:DINBold, DIN;letter-spacing:-0.05em;}</style></defs><rect class="a" width="452" height="210"/><g transform="translate(-913.623 -79.195)"><g transform="translate(1089.623 140.124)"><g transform="translate(0 0)"><path class="b" d="M1139.782,290.241l-41.2-11.536-8.959-103.065,100.95.223-9.426,103.009Z" transform="translate(-1089.623 -175.64)"/><path class="c" d="M1239.547,283.552l8.055-88.026-41.265-.091-.216,97.3Z" transform="translate(-1155.882 -186.898)"/></g><g transform="translate(9 16.071)"><rect class="d" width="82" height="82"/><g transform="translate(12.812 15.375)"><path class="e" d="M70.509,36.935H15.158a1.153,1.153,0,0,1-.882-1.9L27.552,19.294a1.152,1.152,0,0,1,.882-.41h28.8a1.152,1.152,0,0,1,.882.41L71.391,35.039a1.153,1.153,0,0,1-.882,1.9Zm-50.87-2.306h46.39L56.7,23.19H28.97Z" transform="translate(-14.006 -18.884)"/><path class="e" d="M43.032,82.3,14.475,48.389l3.4-2.667h0l25.153,30,25.65-30,2.907,2.667Z" transform="translate(-14.204 -30.749)"/><path class="e" d="M54.649,69.82h0a1.152,1.152,0,0,1-1.087-.77L41.975,36.185a1.153,1.153,0,0,1,.159-1.067L53.72,19.373a1.2,1.2,0,0,1,1.857,0L67.166,35.118a1.151,1.151,0,0,1,.159,1.067L55.736,69.05A1.151,1.151,0,0,1,54.649,69.82Zm-10.3-33.826L54.648,65.2l10.3-29.206L54.649,22Z" transform="translate(-25.821 -18.903)"/><rect class="e" width="15.994" height="2.306" transform="translate(15.563 0.95) rotate(79.869)"/><rect class="e" width="2.306" height="15.995" transform="translate(42.098 0.949) rotate(10.137)"/></g></g></g></g><text class="f" transform="translate(226 49)"><tspan x="-23.441" y="0">Ruby</tspan></text></svg>