<svg xmlns="http://www.w3.org/2000/svg" xmlns:xlink="http://www.w3.org/1999/xlink" width="452" height="210" viewBox="0 0 452 210"><defs><style>.a{fill:#f6f6f6;}.b{clip-path:url(#a);}.c{fill:#eaeef4;}.d{fill:#a4a5a8;}.e{fill:#080304;}.f{fill:#ebeef3;}.g{fill:#021c2e;}.h{fill:#1e9da9;}.i{fill:#e54507;}.j{fill:#fff;}.k{fill:#f29b24;}.l{fill:#2cb1ec;}.m{fill:#222;}</style><clipPath id="a"><rect class="a" width="452" height="210" transform="translate(4464 -124)"/></clipPath></defs><rect class="a" width="452" height="210"/><g class="b" transform="translate(-4464 124)"><g transform="translate(3407.872 -861.113)"><g transform="translate(1202.128 540.113)"><path class="c" d="M2464.031,2714.207H2420.54l7.614-25.768h27.665Z" transform="translate(-2362.074 -2585.35)"/><path class="c" d="M2464.031,2714.207H2420.54l7.614-25.768h27.665Z" transform="translate(-2362.074 -2585.35)"/><path class="d" d="M2553.351,2698.093l-3.077-9.655H2522.61l-2.853,9.655Z" transform="translate(-2456.53 -2585.35)"/><path class="c" d="M2374.789,3105.112l-26.615-4.714-26.35,4.714v1.538h52.965Z" transform="translate(-2268.095 -2977.541)"/><path class="e" d="M1362.286,635.406V542.782a2.67,2.67,0,0,0-2.67-2.669H1204.8a2.669,2.669,0,0,0-2.67,2.669v92.624Z" transform="translate(-1202.128 -540.113)"/><path class="f" d="M1202.128,2525.991v11.479a2.669,2.669,0,0,0,2.67,2.669h154.819a2.67,2.67,0,0,0,2.67-2.669v-11.479Z" transform="translate(-1202.128 -2430.698)"/><rect class="g" width="148.413" height="83.104" transform="translate(6 6)"/><g transform="translate(-411.479 -553.725)"><rect class="h" width="45.945" height="2.578" transform="translate(429.478 580.638)"/><rect class="i" width="10.415" height="2.578" transform="translate(479.591 580.638)"/><rect class="i" width="30.668" height="2.576" transform="translate(429.478 570.725)"/><rect class="j" width="96.531" height="2.578" transform="translate(456.672 590.556)"/><rect class="k" width="22.334" height="2.578" transform="translate(429.478 590.556)"/><rect class="j" width="77.95" height="2.578" transform="translate(439.311 600.469)"/><rect class="i" width="13.363" height="2.578" transform="translate(521.498 600.469)"/><rect class="k" width="14.954" height="2.574" transform="translate(439.311 610.387)"/><rect class="k" width="14.954" height="2.578" transform="translate(439.311 620.3)"/><rect class="h" width="81.451" height="2.574" transform="translate(458.503 610.387)"/><rect class="h" width="42.634" height="2.578" transform="translate(458.503 620.3)"/><rect class="j" width="42.631" height="2.578" transform="translate(504.32 620.3)"/><rect class="h" width="56.484" height="2.577" transform="translate(458.061 630.217)"/><rect class="k" width="25.112" height="2.577" transform="translate(429.478 630.217)"/><rect class="i" width="7.899" height="2.577" transform="translate(519.738 630.217)"/></g></g><path class="d" d="M2741.212,2616.533a2.353,2.353,0,0,1-2.353,2.353h-8.742a2.353,2.353,0,0,1-2.354-2.353h0a2.353,2.353,0,0,1,2.354-2.353h8.742a2.353,2.353,0,0,1,2.353,2.353Z" transform="translate(-1452.427 -1974.542)"/></g></g><g transform="translate(-1056.128 -500.113)"><g transform="translate(1202.128 540.113)"><path class="c" d="M2464.031,2714.207H2420.54l7.614-25.768h27.665Z" transform="translate(-2362.074 -2585.35)"/><path class="c" d="M2464.031,2714.207H2420.54l7.614-25.768h27.665Z" transform="translate(-2362.074 -2585.35)"/><path class="d" d="M2553.351,2698.093l-3.077-9.655H2522.61l-2.853,9.655Z" transform="translate(-2456.53 -2585.35)"/><path class="c" d="M2374.789,3105.112l-26.615-4.714-26.35,4.714v1.538h52.965Z" transform="translate(-2268.095 -2977.541)"/><path class="e" d="M1362.286,635.406V542.782a2.67,2.67,0,0,0-2.67-2.669H1204.8a2.669,2.669,0,0,0-2.67,2.669v92.624Z" transform="translate(-1202.128 -540.113)"/><path class="f" d="M1202.128,2525.991v11.479a2.669,2.669,0,0,0,2.67,2.669h154.819a2.67,2.67,0,0,0,2.67-2.669v-11.479Z" transform="translate(-1202.128 -2430.698)"/><rect class="l" width="148.413" height="83.104" transform="translate(6 6)"/><path class="j" d="M-5792.823-310.647-5804-305l5.312-12.211a25.876,25.876,0,0,1-3.954-13.79,26,26,0,0,1,26-26,26,26,0,0,1,26,26,26,26,0,0,1-26,26A25.89,25.89,0,0,1-5792.823-310.647Z" transform="translate(5856.643 379)"/></g><path class="d" d="M2741.212,2616.533a2.353,2.353,0,0,1-2.353,2.353h-8.742a2.353,2.353,0,0,1-2.354-2.353h0a2.353,2.353,0,0,1,2.354-2.353h8.742a2.353,2.353,0,0,1,2.353,2.353Z" transform="translate(-1452.427 -1974.542)"/></g><path class="m" d="M9.245-21.238a8.606,8.606,0,0,1-2.009,5.125L4.2-12.095A3.426,3.426,0,0,0,3.464-10v.861h-5.33v-1.23A6.844,6.844,0,0,1-.307-14.637l3.034-3.895a4.641,4.641,0,0,0,1.189-2.747,3.356,3.356,0,0,0-.9-2.419,3.191,3.191,0,0,0-2.419-.943,3.076,3.076,0,0,0-2.419.964,3.524,3.524,0,0,0-.861,2.439h-5.33a7.735,7.735,0,0,1,2.542-6.027A8.647,8.647,0,0,1,.594-29.438a8.842,8.842,0,0,1,6.068,2.132A7.725,7.725,0,0,1,9.245-21.238ZM3.628,0H-2.03V-5.453H3.628Z" transform="translate(224 104)"/></svg>