<svg xmlns="http://www.w3.org/2000/svg" width="452" height="210" viewBox="0 0 452 210"><defs><style>.a{fill:#f6f6f6;}.b{fill:#eaeef4;}.c{fill:#a4a5a8;}.d{fill:#080304;}.e{fill:#ebeef3;}.f{fill:#021c2e;}.g{fill:#fff;font-size:12px;font-family:DINBold, DIN;}</style></defs><rect class="a" width="452" height="210"/><g transform="translate(-1056.128 -500.113)"><g transform="translate(1202.128 540.113)"><path class="b" d="M2464.031,2714.207H2420.54l7.614-25.768h27.665Z" transform="translate(-2362.074 -2585.35)"/><path class="b" d="M2464.031,2714.207H2420.54l7.614-25.768h27.665Z" transform="translate(-2362.074 -2585.35)"/><path class="c" d="M2553.351,2698.093l-3.077-9.655H2522.61l-2.853,9.655Z" transform="translate(-2456.53 -2585.35)"/><path class="b" d="M2374.789,3105.112l-26.615-4.714-26.35,4.714v1.538h52.965Z" transform="translate(-2268.095 -2977.541)"/><path class="d" d="M1362.286,635.406V542.782a2.67,2.67,0,0,0-2.67-2.669H1204.8a2.669,2.669,0,0,0-2.67,2.669v92.624Z" transform="translate(-1202.128 -540.113)"/><path class="e" d="M1202.128,2525.991v11.479a2.669,2.669,0,0,0,2.67,2.669h154.819a2.67,2.67,0,0,0,2.67-2.669v-11.479Z" transform="translate(-1202.128 -2430.698)"/><rect class="f" width="148.413" height="83.104" transform="translate(6 6)"/></g><path class="c" d="M2741.212,2616.533a2.353,2.353,0,0,1-2.353,2.353h-8.742a2.353,2.353,0,0,1-2.354-2.353h0a2.353,2.353,0,0,1,2.354-2.353h8.742a2.353,2.353,0,0,1,2.353,2.353Z" transform="translate(-1452.427 -1974.542)"/><g transform="translate(1015.43 313.552)"><path class="a" d="M393.719,252.307H367.957l-4.746-4.746H335.064V257.3h58.655ZM338.333,252a1.447,1.447,0,1,1,1.447-1.447A1.447,1.447,0,0,1,338.333,252Zm4.23,0a1.447,1.447,0,1,1,1.447-1.447A1.447,1.447,0,0,1,342.563,252Zm4.23,0a1.447,1.447,0,1,1,1.447-1.447A1.447,1.447,0,0,1,346.793,252Z" transform="translate(-98.141 0)"/><path class="a" d="M314.043,325.19a4.271,4.271,0,0,0-4.17,3.375h-7.73v-7.183a.889.889,0,0,0-.889-.889h-22.1a16.155,16.155,0,0,0,1.35-1.785l0,.007h15.081v-6.137H282.894c0,.028-.01.056-.015.084a16.171,16.171,0,0,0,.21-1.863h20.8a4.263,4.263,0,1,0-.1-1.778h-20.7a16.145,16.145,0,0,0-.21-1.864c0,.028.011.057.015.085h12.683v-6.137H280.5l0,.007a16.191,16.191,0,0,0-1.35-1.785h22.1a.889.889,0,0,0,.889-.889v-7.183h7.73a4.264,4.264,0,1,0,0-1.778h-8.619a.889.889,0,0,0-.889.889v7.183H277.336a16.139,16.139,0,0,0-2.6-1.778h20.844v-5.4H236.923v5.4h22.349a16.139,16.139,0,0,0-2.6,1.778H233.64v-7.183a.889.889,0,0,0-.889-.889h-8.619a4.264,4.264,0,1,0,0,1.778h7.73v7.183a.889.889,0,0,0,.889.889h22.1a16.185,16.185,0,0,0-1.345,1.778H236.923v6.137h14.19a16.129,16.129,0,0,0-.2,1.779h-20.7a4.265,4.265,0,1,0-.1,1.778h20.8a16.122,16.122,0,0,0,.2,1.779h-14.19v6.137h16.586a16.2,16.2,0,0,0,1.346,1.778h-22.1a.889.889,0,0,0-.889.889v7.183h-7.73a4.264,4.264,0,1,0,0,1.778h8.619a.889.889,0,0,0,.889-.889v-7.183h23.029a16.131,16.131,0,0,0,2.6,1.778H236.923v4.717a.688.688,0,0,0,.687.688h57.28a.687.687,0,0,0,.687-.688v-4.717H274.733a16.131,16.131,0,0,0,2.6-1.778h23.029v7.183a.889.889,0,0,0,.889.889h8.619a4.264,4.264,0,1,0,4.17-5.153Zm0-37.308a2.486,2.486,0,1,1-2.486,2.486A2.489,2.489,0,0,1,314.043,287.882Zm-94.081,4.972a2.486,2.486,0,1,1,2.486-2.486A2.489,2.489,0,0,1,219.962,292.854Zm0,39.086a2.486,2.486,0,1,1,2.486-2.486A2.489,2.489,0,0,1,219.962,331.94ZM282.8,313.067q.017-.087.033-.174Q282.821,312.98,282.8,313.067Zm-2.1,5.318.014-.023Zm.21-.348.015-.025Zm.2-.358.011-.02Zm.2-.369.006-.01Zm.83-1.891.016-.046Zm.133-.382c.011-.032.021-.065.032-.1C282.3,314.972,282.292,315,282.281,315.037Zm.124-.385.038-.127C282.43,314.567,282.417,314.609,282.4,314.652Zm.115-.39c.013-.048.026-.1.039-.145C282.545,314.165,282.532,314.214,282.519,314.262Zm.1-.395c.013-.052.025-.1.038-.156C282.649,313.763,282.637,313.815,282.624,313.867Zm.1-.4c.012-.055.024-.11.036-.166C282.743,313.359,282.731,313.414,282.719,313.469Zm.388-3.1c0-.006,0-.011,0-.016S283.107,310.366,283.107,310.371ZM308,307.2a2.486,2.486,0,1,1-2.486,2.486A2.489,2.489,0,0,1,308,307.2Zm-24.887,2.711h0Zm-.006-.444c0-.006,0-.011,0-.017S283.107,309.461,283.107,309.467Zm-2.386-8.007-.015-.024Zm2.117,5.47c-.011-.059-.022-.118-.034-.177C282.815,306.812,282.826,306.871,282.837,306.93Zm-.082-.41c-.012-.056-.024-.112-.036-.168C282.731,306.408,282.743,306.464,282.755,306.52Zm-.093-.408c-.013-.053-.025-.106-.039-.159C282.637,306.006,282.649,306.06,282.662,306.112Zm-.1-.406c-.013-.049-.026-.1-.04-.147C282.532,305.608,282.545,305.657,282.558,305.706Zm-.116-.407c-.013-.043-.025-.086-.038-.129C282.417,305.212,282.43,305.256,282.443,305.3Zm-.13-.414c-.011-.033-.022-.067-.033-.1C282.292,304.817,282.3,304.851,282.313,304.884Zm-.148-.432-.017-.049Zm-.842-1.93-.005-.01Zm-.191-.358-.012-.022Zm-.2-.354-.015-.025Zm-2.2-2.94-.016-.017Zm-.443-.452-.028-.027Zm-22.549-.027-.028.027Zm-.456.463-.016.017Zm-4.4,11.058h0Zm.007-.458v0ZM226,312.171a2.486,2.486,0,1,1,2.486-2.486A2.488,2.488,0,0,1,226,312.171Zm24.894-1.816s0,.009,0,.013S250.9,310.36,250.9,310.355Zm4.373,10.6.016.017Zm.443.452.029.028ZM267,324.244a14.333,14.333,0,1,1,14.333-14.333A14.349,14.349,0,0,1,267,324.244Zm11.26-2.812.028-.028Zm.471-.48-.016.017Zm35.309,10.987a2.486,2.486,0,1,1,2.486-2.486A2.489,2.489,0,0,1,314.043,331.94Z" transform="translate(0 -31.69)"/></g></g><text class="g" transform="translate(226 96)"><tspan x="-9.426" y="0">API</tspan></text></svg>