<svg xmlns="http://www.w3.org/2000/svg" width="452" height="210" viewBox="0 0 452 210"><defs><style>.a{fill:#f6f6f6;}.b{fill:#dab92d;}.c{fill:#ffd83a;}.d{fill:#fff;}.e{font-size:23px;font-family:DINBold, DIN;}</style></defs><rect class="a" width="452" height="210"/><g transform="translate(-913.623 -79.195)"><g transform="translate(1089.623 140.124)"><g transform="translate(0 0)"><path class="b" d="M1139.782,290.241l-41.2-11.536-8.959-103.065,100.95.223-9.426,103.009Z" transform="translate(-1089.623 -175.64)"/><path class="c" d="M1239.547,283.552l8.055-88.026-41.265-.091-.216,97.3Z" transform="translate(-1155.882 -186.898)"/></g><path class="d" d="M1211.629,224.752l-.084,38.219,12.638.028h.147l-1.5,16.387-11.324,3.03-.029,13.127,23.144-6.36,3.555-38.791-13.962-.031.029-12.943,15.07.033h.041l1.16-12.636Z" transform="translate(-1158.925 -203.572)"/><path class="d" d="M1154.2,224.663l1.785,55.332-3.886-.93-.8-9.871L1141,269.171l1.727,19.847,23.122,6.475.157-70.8Z" transform="translate(-1118.843 -203.522)"/></g></g><text class="e" transform="translate(226 50)"><tspan x="-12.673" y="0">JS</tspan></text></svg>