<svg xmlns="http://www.w3.org/2000/svg" width="452" height="210" viewBox="0 0 452 210"><defs><style>.a{fill:#f6f6f6;}.b{fill:#021c2e;}.c{fill:#2095df;}</style></defs><rect class="a" width="452" height="210"/><g transform="translate(-30.956 0.371)"><path class="b" d="M33.451,37.977a4.376,4.376,0,1,1,4.376,4.377A4.377,4.377,0,0,1,33.451,37.977ZM37.828,19.6a18.38,18.38,0,0,0-17.8,13.825A.766.766,0,0,0,20,33.6a.875.875,0,0,0,.875.875h7.407a.876.876,0,0,0,.794-.511h0a9.628,9.628,0,1,1,0,8.022v0a.875.875,0,0,0-.794-.511H20.875a.875.875,0,0,0-.875.875.813.813,0,0,0,.022.174A18.378,18.378,0,1,0,37.828,19.6Zm48.06,22.687h-2.5a.538.538,0,0,0-.427.212,8.078,8.078,0,1,1,0-9.04.535.535,0,0,0,.426.212h2.5a.54.54,0,0,0,.54-.538.548.548,0,0,0-.059-.242,11.31,11.31,0,1,0,0,10.178.55.55,0,0,0,.059-.242A.539.539,0,0,0,85.887,42.286ZM93.427,22.9a2.154,2.154,0,1,1-2.154-2.155A2.154,2.154,0,0,1,93.427,22.9Zm-.538,25.313v-21H89.657v21a.539.539,0,0,0,.539.538H92.35A.539.539,0,0,0,92.889,48.211ZM106.9,26.681a9.58,9.58,0,0,0-7.548,4.089V27.744a.539.539,0,0,0-.539-.537H96.659a.538.538,0,0,0-.538.537h0V48.211a.538.538,0,0,0,.538.538h2.154a.539.539,0,0,0,.539-.538V37.977a8.078,8.078,0,0,1,7.539-8.06.54.54,0,0,0,.54-.54V27.219A.54.54,0,0,0,106.9,26.681Zm21.46,15.605h-2.5a.533.533,0,0,0-.426.212,8.078,8.078,0,1,1,0-9.04.535.535,0,0,0,.426.212h2.5a.539.539,0,0,0,.539-.538.527.527,0,0,0-.06-.242,11.31,11.31,0,1,0,0,10.178.529.529,0,0,0,.06-.242A.538.538,0,0,0,128.361,42.286ZM134.823,20.2H132.67a.538.538,0,0,0-.539.538V48.211a.538.538,0,0,0,.539.538h2.154a.539.539,0,0,0,.539-.538V20.743A.539.539,0,0,0,134.823,20.2ZM149.9,26.668a11.31,11.31,0,1,0,10.1,16.4.528.528,0,0,0,.058-.242.538.538,0,0,0-.539-.538h-2.5a.533.533,0,0,0-.433.221A8.076,8.076,0,0,1,141.9,39.054h18.762a.539.539,0,0,0,.537-.511q.015-.281.015-.565A11.309,11.309,0,0,0,149.9,26.668Zm-7.787,9.156a8.079,8.079,0,0,1,15.572,0ZM192.5,19.666a3.232,3.232,0,1,0,3.231,3.232A3.232,3.232,0,0,0,192.5,19.666Zm2.693,7.54v21a.539.539,0,0,1-.537.538h-4.309a.539.539,0,0,1-.539-.538v-21ZM175.755,49.288a11.312,11.312,0,0,0,10.956-8.508.53.53,0,0,0,.014-.109.538.538,0,0,0-.537-.538h-4.56a.535.535,0,0,0-.488.314h0a5.924,5.924,0,1,1,0-4.937h0a.538.538,0,0,0,.488.315h4.56a.538.538,0,0,0,.537-.539.516.516,0,0,0-.014-.108,11.31,11.31,0,1,0-10.956,14.111Z" transform="translate(149.082 99.127)"/><g transform="translate(148.342 -201.59)"><path class="c" d="M262.181,290a1.669,1.669,0,0,0-1.727,1.609v8.428a9.336,9.336,0,0,0-13.109,1.434,9.432,9.432,0,0,0-2.048,5.852,9.321,9.321,0,0,0,18.64.322V291.724a1.725,1.725,0,0,0-.5-1.229,1.847,1.847,0,0,0-1.258-.5m-2.195,19.576a5.829,5.829,0,0,1-7.667,3.131,5.849,5.849,0,0,1,0-10.739,5.829,5.829,0,0,1,7.667,3.131,5.667,5.667,0,0,1,0,4.477m21.654-8.837a9.412,9.412,0,1,0,2.751,6.906v-.322a9.353,9.353,0,0,0-.7-3.57,8.889,8.889,0,0,0-2.048-3.014m-1.2,8.808a5.735,5.735,0,0,1-1.258,1.844,6.073,6.073,0,0,1-1.844,1.258,5.848,5.848,0,0,1-7.667-3.1,5.829,5.829,0,0,1,3.1-7.637,5.882,5.882,0,0,1,4.565,0,5.735,5.735,0,0,1,1.844,1.258,6.072,6.072,0,0,1,1.258,1.844,5.809,5.809,0,0,1,0,4.536m39.738-9.832a1.736,1.736,0,0,0-.146-.673,2.347,2.347,0,0,0-.38-.556,1.874,1.874,0,0,0-.556-.38,1.736,1.736,0,0,0-.673-.146,1.815,1.815,0,0,0-.936.263l-9.949,6.467V291.754a1.725,1.725,0,0,0-.5-1.229,1.738,1.738,0,0,0-2.985,1.2v23.146a1.725,1.725,0,0,0,.5,1.229,1.7,1.7,0,0,0,2.458,0,1.612,1.612,0,0,0,.5-1.229v-6l2.019-1.317,7.7,8.632a1.585,1.585,0,0,0,1.171.439,1.334,1.334,0,0,0,.673-.146,1.717,1.717,0,0,0,.556-.38,2.346,2.346,0,0,0,.38-.556,1.735,1.735,0,0,0,.146-.673,1.814,1.814,0,0,0-.468-1.2l-7.14-8.047,6.964-4.536a1.5,1.5,0,0,0,.673-1.375M291.3,303.166a5.862,5.862,0,0,1,1.873-1.258,6.121,6.121,0,0,1,2.282-.468,5.863,5.863,0,0,1,2.019.351,6.2,6.2,0,0,1,1.785,1.083,1.789,1.789,0,0,0,1.141.38,1.574,1.574,0,0,0,1.258-.5,1.794,1.794,0,0,0,.5-1.258,1.663,1.663,0,0,0-.615-1.317,8.781,8.781,0,0,0-6.087-2.253,9.335,9.335,0,1,0,6.057,16.416,1.746,1.746,0,0,0,.556-1.288,1.669,1.669,0,0,0-1.609-1.726h-.117a1.862,1.862,0,0,0-1.112.351,6.058,6.058,0,0,1-1.756,1.083,5.984,5.984,0,0,1-2.019.351,5.594,5.594,0,0,1-2.282-.468,6.2,6.2,0,0,1-1.873-1.258,5.855,5.855,0,0,1-.029-8.252c.029.059.029.059.029.029m63.441-4.009a3.21,3.21,0,0,0-1.17-.7,7.011,7.011,0,0,0-1.551-.351,14.289,14.289,0,0,0-1.58-.088,8.833,8.833,0,0,0-3.131.556,9.562,9.562,0,0,0-2.721,1.522v-.351a1.743,1.743,0,0,0-3.482,0v15.187a1.743,1.743,0,0,0,3.482,0V307.35a5.594,5.594,0,0,1,.468-2.282,5.307,5.307,0,0,1,1.258-1.844,5.789,5.789,0,0,1,4.126-1.726,6.7,6.7,0,0,1,2.282.41,1.586,1.586,0,0,0,.732.176,1.334,1.334,0,0,0,.673-.146,1.715,1.715,0,0,0,.556-.38,1.873,1.873,0,0,0,.38-.556,1.736,1.736,0,0,0,.146-.673,1.5,1.5,0,0,0-.468-1.17m-16.153,4.594a9.5,9.5,0,0,0-8.632-5.735,9.32,9.32,0,1,0,6.087,16.387l.059-.059a1.378,1.378,0,0,0,.38-.439,1.773,1.773,0,0,0-.439-2.458,1.724,1.724,0,0,0-2.136.2c-.059.059-.234.2-.234.234l-.029.029a5.293,5.293,0,0,1-1.668.966,5.225,5.225,0,0,1-2.019.322,5.819,5.819,0,0,1-3.511-1.141,5.381,5.381,0,0,1-1.288-1.288,5.213,5.213,0,0,1-.819-1.668H337.5a1.725,1.725,0,0,0,1.229-.5,1.514,1.514,0,0,0,.5-1.229,9.492,9.492,0,0,0-.644-3.628m-14.251,1.873a4.932,4.932,0,0,1,.819-1.668,5.379,5.379,0,0,1,1.288-1.288,6.7,6.7,0,0,1,1.639-.849,5.954,5.954,0,0,1,3.687,0,5.921,5.921,0,0,1,3.775,3.8ZM348.8,314.11a1.214,1.214,0,1,0,1.229,1.229A1.212,1.212,0,0,0,348.8,314.11Zm0,2.165a.952.952,0,1,1,.907-.995v.059a.894.894,0,0,1-.878.936Z" transform="translate(-158.741 -31.901)"/><path class="c" d="M190.349,304.518a.32.32,0,0,0,.117-.556.935.935,0,0,0-.41-.088,2.517,2.517,0,0,0-.468.029v1.2h.263v-.468h.117a.235.235,0,0,1,.263.176c.029.088.059.2.088.293h.293a.565.565,0,0,1-.088-.293.278.278,0,0,0-.176-.293m-.351-.088h-.146v-.351H190c.176,0,.263.088.263.176.029.117-.117.2-.263.176M83.366,283.1c-.176-.146-1.756-1.346-5.15-1.346a16.371,16.371,0,0,0-2.663.234,10.032,10.032,0,0,0-4.506-6.76l-.907-.527-.585.849a12.513,12.513,0,0,0-1.609,3.746A8.892,8.892,0,0,0,69,286.288,12.415,12.415,0,0,1,64.4,287.4H22.851a1.961,1.961,0,0,0-1.961,1.961,29.611,29.611,0,0,0,1.814,10.681,16.019,16.019,0,0,0,6.321,8.223c3.1,1.9,8.164,2.985,13.87,2.985a42.541,42.541,0,0,0,7.7-.7,31.761,31.761,0,0,0,10.066-3.658,27.552,27.552,0,0,0,6.847-5.618,37.255,37.255,0,0,0,6.7-11.559h.585a9.628,9.628,0,0,0,7.052-2.663,7.794,7.794,0,0,0,1.873-2.751l.263-.761Z" transform="translate(0 -21.08)"/><path class="c" d="M39.6,265.12h5.56a.493.493,0,0,0,.5-.5v-4.975a.493.493,0,0,0-.5-.5H39.6a.493.493,0,0,0-.5.5v4.975A.512.512,0,0,0,39.6,265.12Zm7.667,0h5.56a.493.493,0,0,0,.5-.5v-4.975a.493.493,0,0,0-.5-.5h-5.56a.493.493,0,0,0-.5.5v4.975a.512.512,0,0,0,.5.5m7.813,0h5.56a.493.493,0,0,0,.5-.5v-4.975a.493.493,0,0,0-.5-.5h-5.56a.493.493,0,0,0-.5.5v4.975A.476.476,0,0,0,55.077,265.12Zm7.7,0h5.56a.493.493,0,0,0,.5-.5v-4.975a.493.493,0,0,0-.5-.5h-5.56a.493.493,0,0,0-.5.5v4.975A.493.493,0,0,0,62.773,265.12ZM47.264,258.01h5.56a.513.513,0,0,0,.5-.5v-4.975a.493.493,0,0,0-.5-.5h-5.56a.493.493,0,0,0-.5.5v4.975a.535.535,0,0,0,.5.5m7.813,0h5.56a.513.513,0,0,0,.5-.5v-4.975a.493.493,0,0,0-.5-.5h-5.56a.493.493,0,0,0-.5.5v4.975a.493.493,0,0,0,.5.5m7.7,0h5.56a.513.513,0,0,0,.5-.5v-4.975a.513.513,0,0,0-.5-.5h-5.56a.493.493,0,0,0-.5.5v4.975a.513.513,0,0,0,.5.5m0-7.14h5.56a.493.493,0,0,0,.5-.5V245.4a.513.513,0,0,0-.5-.5h-5.56a.493.493,0,0,0-.5.5v4.975a.513.513,0,0,0,.5.5m7.755,14.251h5.56a.493.493,0,0,0,.5-.5v-4.975a.493.493,0,0,0-.5-.5h-5.56a.493.493,0,0,0-.5.5v4.975a.512.512,0,0,0,.5.5" transform="translate(-12.883 0)"/></g></g></svg>