<svg xmlns="http://www.w3.org/2000/svg" width="452" height="210" viewBox="0 0 452 210"><defs><style>.a{fill:#f6f6f6;}.b{fill:#eaeef4;}.c{fill:#a4a5a8;}.d{fill:#080304;}.e{fill:#ebeef3;}.f{fill:#001c2e;}.g{fill:#fff;}</style></defs><rect class="a" width="452" height="210"/><g transform="translate(-1056.128 -500.113)"><g transform="translate(1202.128 540.113)"><path class="b" d="M2464.031,2714.207H2420.54l7.614-25.768h27.665Z" transform="translate(-2362.074 -2585.35)"/><path class="b" d="M2464.031,2714.207H2420.54l7.614-25.768h27.665Z" transform="translate(-2362.074 -2585.35)"/><path class="c" d="M2553.351,2698.093l-3.077-9.655H2522.61l-2.853,9.655Z" transform="translate(-2456.53 -2585.35)"/><path class="b" d="M2374.789,3105.112l-26.615-4.714-26.35,4.714v1.538h52.965Z" transform="translate(-2268.095 -2977.541)"/><path class="d" d="M1362.286,635.406V542.782a2.67,2.67,0,0,0-2.67-2.669H1204.8a2.669,2.669,0,0,0-2.67,2.669v92.624Z" transform="translate(-1202.128 -540.113)"/><path class="e" d="M1202.128,2525.991v11.479a2.669,2.669,0,0,0,2.67,2.669h154.819a2.67,2.67,0,0,0,2.67-2.669v-11.479Z" transform="translate(-1202.128 -2430.698)"/><rect class="f" width="148.413" height="83.104" transform="translate(5.872 6.229)"/></g><path class="c" d="M2741.212,2616.533a2.353,2.353,0,0,1-2.353,2.353h-8.742a2.353,2.353,0,0,1-2.354-2.353h0a2.353,2.353,0,0,1,2.354-2.353h8.742a2.353,2.353,0,0,1,2.353,2.353Z" transform="translate(-1452.427 -1974.542)"/></g><path class="g" d="M9.574-6.5a.891.891,0,0,0,0-1.26L2.362-14.967a.891.891,0,0,0-1.26,0l-.841.841a.891.891,0,0,0,0,1.258L5.975-7.125.259-1.382a.891.891,0,0,0,0,1.258L1.1.717a.891.891,0,0,0,1.26,0ZM23.75.3V-.891a.891.891,0,0,0-.891-.891H11.578a.891.891,0,0,0-.891.891V.3a.891.891,0,0,0,.891.891H22.859A.891.891,0,0,0,23.75.3Z" transform="translate(162 69)"/></svg>