<svg xmlns="http://www.w3.org/2000/svg" width="452" height="210" viewBox="0 0 452 210"><defs><style>.a{fill:#f6f6f6;}.b{fill:#e44d26;}.c{fill:#f77478;}.d{fill:none;}.e{fill:#fff;}.f{fill:#222;font-size:17px;font-family:DINBold, DIN;}</style></defs><rect class="a" width="452" height="210"/><g transform="translate(68.157 37.099)"><g transform="translate(0 30.141)"><g transform="translate(0 0)"><g transform="translate(0 0)"><path class="b" d="M1134.35,277.831l-36.738-10.287-7.989-91.9,90.018.2-8.405,91.854Z" transform="translate(-1089.623 -175.64)"/><path class="c" d="M1235.927,274.01l7.183-78.494-36.8-.081-.192,86.767Z" transform="translate(-1161.322 -187.823)"/></g><g transform="translate(7.843 14.76)"><rect class="d" width="73" height="73"/><g transform="translate(11.38 13.701)"><path class="e" d="M64.191,34.917H15.029a1.024,1.024,0,0,1-.783-1.684L26.037,19.248a1.023,1.023,0,0,1,.783-.364H52.4a1.023,1.023,0,0,1,.783.364L64.974,33.233a1.024,1.024,0,0,1-.783,1.684ZM19.009,31.98h41.2l-8.285-9.272H27.3Z" transform="translate(-14.006 -18.884)"/><path class="e" d="M39.839,78.212,14.475,48.091,17.5,45.722h0l22.34,26.645L62.622,45.722,65.2,48.091Z" transform="translate(-14.235 -32.423)"/><path class="e" d="M53.113,64.13h0a1.024,1.024,0,0,1-.966-.684L40.967,34.256a1.024,1.024,0,0,1,.141-.948L52.288,19.323a1.061,1.061,0,0,1,1.649,0L65.118,33.308a1.022,1.022,0,0,1,.141.948L54.078,63.446A1.022,1.022,0,0,1,53.113,64.13ZM44.856,34.974l8.256,23.275L61.37,34.974,53.113,23.435Z" transform="translate(-27.508 -18.906)"/><rect class="e" width="14.206" height="3.825" transform="translate(14.697 0.688) rotate(79.869)"/><rect class="e" width="3.825" height="14.206" transform="translate(36.516 0.687) rotate(10.137)"/></g></g></g></g><text class="f" transform="translate(41.843 16.901)"><tspan x="-19.389" y="0">Ruby</tspan></text></g><g transform="translate(168.65 37.099)"><g transform="translate(8.695 29.813)"><g transform="translate(0 0)"><path class="b" d="M1134.35,277.831l-36.738-10.287-7.989-91.9,90.018.2-8.405,91.854Z" transform="translate(-1089.623 -175.64)"/><path class="c" d="M1235.927,274.01l7.183-78.494-36.8-.081-.192,86.767Z" transform="translate(-1161.322 -187.823)"/><g transform="translate(17.402 19.311)"><path class="e" d="M291.953,499.757h26.171s-5.8-13.184-4.329-25.285,11.019-17.612,16.43-18.2a10.02,10.02,0,0,1,8.363,2.755l1.181-1.771s-7.773-7.871-17.611-6.985-16.627,7.379-20.858,15.25-6.69,13.381-8.363,21.645S291.953,499.757,291.953,499.757Z" transform="translate(-286.149 -447.121)"/><path class="e" d="M281.117,522.675l5.116.394-.886,5.116-4.821-.59Z" transform="translate(-280.527 -483.222)"/><path class="e" d="M293.189,495.545l1.378-3.837-4.526-1.771-1.476,4.132Z" transform="translate(-284.531 -466.915)"/><path class="e" d="M307,469.472l2.656-3.148-3.443-2.263-2.755,3.049Z" transform="translate(-291.952 -454.025)"/><path class="e" d="M324.438,448.874l2.361,2.853,3.247-1.87-2.361-2.656Z" transform="translate(-302.4 -445.627)"/><path class="e" d="M347.375,444.065l.59,2.854,4.034-.1-.394-2.558Z" transform="translate(-313.825 -444.065)"/><path class="e" d="M374.526,450.142l-.1,1.771,2.755,1.476.59-.885Z" transform="translate(-327.301 -447.092)"/><path class="e" d="M373.447,465.237v1.475l2.656.3v-1.181Z" transform="translate(-326.812 -454.611)"/><path class="e" d="M356.589,467.1l1.279,2.361,1.869-1.476-.393-1.574Z" transform="translate(-318.415 -455.196)"/><path class="e" d="M346.5,473.863l1.968,2.952-1.181,2.066-2.853-3.148Z" transform="translate(-312.36 -458.908)"/><path class="e" d="M339.44,490.133l-1.279,2.558,3.345,2.854.787-3.247Z" transform="translate(-309.236 -467.012)"/><path class="e" d="M337.77,507.972l-.2,3.443,4.132,1.771-.2-3.247Z" transform="translate(-308.943 -475.898)"/><path class="e" d="M340.317,532.281l.984,3.542,5.214.3-1.87-3.837Z" transform="translate(-310.31 -488.007)"/></g></g></g><text class="f" transform="translate(52.351 16.901)"><tspan x="-52.275" y="0">Ruby on Rails</tspan></text></g><g transform="translate(285.291 37.099)"><g transform="translate(0 29.813)"><g transform="translate(0 0)"><path class="b" d="M1134.352,277.835l-36.74-10.287-7.989-91.908,90.021.2-8.406,91.857Z" transform="translate(-1089.623 -175.64)"/><path class="c" d="M1235.929,274.013l7.183-78.5-36.8-.081-.192,86.77Z" transform="translate(-1161.321 -187.823)"/></g><g transform="translate(3 7)"><rect class="d" width="69" height="69" transform="translate(7.709 10.088)"/><g transform="translate(13.229 15.607)"><path class="e" d="M284.711,81.8a28.856,28.856,0,0,1-2.047,10.71l-.006,0-4.3.856-2.691-4.016a21.288,21.288,0,0,0-17.824-28.72l0-.032,2.911-3.928-2.2-3.676A28.943,28.943,0,0,1,284.711,81.8Z" transform="translate(-226.828 -52.856)"/><path class="e" d="M118.263,305.15l4.207-.837a28.952,28.952,0,0,1-52.441-.081l.006,0,2.329-3.72,4.768.8h0a21.279,21.279,0,0,0,38.383-.231l.026.012Z" transform="translate(-67.328 -263.066)"/><path class="e" d="M81.468,59.778v0c-.139,0-.277,0-.418,0a21.284,21.284,0,0,0-19.8,29.056l-.026.011L56.4,88.038l-2.278,3.637A28.957,28.957,0,0,1,81.05,52.109c.35,0,.7.006,1.043.018l2.253,3.767Z" transform="translate(-52.109 -52.109)"/><g transform="translate(14.031 17.385)"><path class="e" d="M42.285,27.919h-27.7a.577.577,0,0,1-.441-.949l6.644-7.88a.577.577,0,0,1,.441-.205H35.643a.577.577,0,0,1,.441.205l6.643,7.88a.577.577,0,0,1-.441.949Zm-25.46-1.655H40.043l-4.669-5.225H21.495Z" transform="translate(-14.006 -18.884)"/><path class="e" d="M28.768,64.031,14.475,47.057l1.7-1.335h0L28.768,60.737,41.606,45.722l1.455,1.335Z" transform="translate(-14.34 -38.228)"/><path class="e" d="M47.786,44.4h0a.577.577,0,0,1-.544-.385l-6.3-16.449a.577.577,0,0,1,.079-.534l6.3-7.88a.6.6,0,0,1,.929,0l6.3,7.88a.576.576,0,0,1,.079.534l-6.3,16.449A.576.576,0,0,1,47.786,44.4ZM43.133,27.971l4.653,13.116,4.654-13.116-4.653-6.5Z" transform="translate(-33.357 -18.917)"/><rect class="e" width="8.005" height="2.155" transform="translate(8.282 0.387) rotate(79.869)"/><rect class="e" width="2.155" height="8.005" transform="translate(20.577 0.387) rotate(10.137)"/></g></g></g></g><text class="f" transform="translate(43.709 16.901)"><tspan x="-23.316" y="0">Rspec</tspan></text></g></svg>