<svg xmlns="http://www.w3.org/2000/svg" xmlns:xlink="http://www.w3.org/1999/xlink" width="452" height="210" viewBox="0 0 452 210"><defs><style>.a{fill:#f6f6f6;}.b{fill:#0b74b8;}.c{fill:#2eaade;}.d{fill:#ebebeb;}.e{opacity:0.2;fill:url(#a);}.e,.g{mix-blend-mode:multiply;isolation:isolate;}.f{fill:#fff;}.g{opacity:0.3;fill:url(#b);}.h{font-size:23px;font-family:DINBold, DIN;}.i{fill:#e44d26;}.j{fill:#f16529;}.k{fill:#dab92d;}.l{fill:#ffd83a;}</style><linearGradient id="a" x1="0.454" y1="0.528" x2="0.073" y2="0.822" gradientUnits="objectBoundingBox"><stop offset="0" stop-color="#fff"/><stop offset="1"/></linearGradient><linearGradient id="b" x1="0" y1="0.5" x2="1" y2="0.5" xlink:href="#a"/></defs><rect class="a" width="452" height="210"/><g transform="translate(-115.365 -65.096)"><g transform="translate(297.102 111.778)"><g transform="translate(0 22.752)"><path class="b" d="M675.035,272.292l-34.709-9.636L632.591,175.9h84.994l-7.744,86.744Z" transform="translate(-632.591 -175.899)"/><path class="c" d="M777.758,269.562l6.618-74.126H749.634v81.924Z" transform="translate(-707.137 -188.342)"/><g transform="translate(15.847 17.875)"><path class="d" d="M682.477,257.307l49.476-21.537.953-10.64-51.378,21.537Z" transform="translate(-679.607 -225.13)"/><path class="e" d="M682.477,257.307l49.476-21.537.953-10.64-51.378,21.537Z" transform="translate(-679.607 -225.13)"/><path class="d" d="M702.882,225.13H676.237l.254,2.854.7,7.786h25.732V225.13Z" transform="translate(-676.237 -225.13)"/><path class="f" d="M774.354,284.447H749.62v10.64h13.1l-1.236,13.8-11.867,3.2v11.069l21.813-6.046Z" transform="translate(-722.976 -262.91)"/><path class="f" d="M749.62,236.3v10.654l25.7-11.187.953-10.64Z" transform="translate(-722.976 -225.13)"/><path class="g" d="M749.62,236.3v10.654l25.7-11.187.953-10.64Z" transform="translate(-722.976 -225.13)"/><path class="d" d="M681.528,284.447l.948,10.64h23.811v-10.64Z" transform="translate(-679.607 -262.91)"/><path class="f" d="M776.275,225.13H749.62v10.64h25.7Z" transform="translate(-722.976 -225.13)"/><path class="d" d="M708.771,340.089h0l-11.849-3.2-.758-8.486H685.48l1.491,16.707,21.795,6.052,0,0Z" transform="translate(-682.124 -290.907)"/></g></g><text class="h" transform="translate(42.264 8.318)"><tspan x="-20.723" y="0">CSS</tspan></text></g><g transform="translate(196.29 110.946)"><g transform="translate(0 23.583)"><path class="i" d="M218.734,272.292l-34.709-9.636L176.29,175.9h84.994l-7.743,86.744Z" transform="translate(-176.29 -175.898)"/><path class="j" d="M321.459,269.562l6.617-74.127H293.334v81.924Z" transform="translate(-250.837 -188.341)"/><path class="f" d="M246.618,235.38h25.665l.953-10.64h-53.3l2.87,32.178h36.878l-1.236,13.8-11.867,3.2h0l-.01,0-11.849-3.2-.758-8.486H223.283l1.491,16.707,21.8,6.052.049-.014v0l21.776-6.036,2.921-32.666H232.538l-.972-10.9h15.052Z" transform="translate(-204.089 -207.006)"/><g transform="translate(15.847 17.734)"><path class="d" d="M252.456,339.694l-.005,0h0l-.01,0-11.849-3.2-.758-8.486H229.152l1.491,16.707,21.8,6.052.017-.005Z" transform="translate(-225.806 -290.516)"/><path class="d" d="M246.586,256.917v-10.64H232.538l-.972-10.9h15.02V224.74h-26.65l2.87,32.178h23.78Z" transform="translate(-219.936 -224.74)"/></g></g><text class="h" transform="translate(42.075 9.15)"><tspan x="-30.383" y="0">HTML</tspan></text></g><g transform="translate(397.799 111.594)"><g transform="translate(0 23.679)"><g transform="translate(0 0)"><path class="k" d="M1133.727,276.408,1097.5,266.264l-7.877-90.625,88.765.2-8.288,90.575Z" transform="translate(-1089.623 -175.64)"/><path class="l" d="M1235.512,272.916l7.083-77.4-36.284-.08-.19,85.558Z" transform="translate(-1161.946 -187.929)"/></g><path class="f" d="M1211.61,224.752l-.074,33.605,11.112.025h.13l-1.323,14.409-9.957,2.664L1211.473,287l20.351-5.592,3.126-34.109-12.276-.027.025-11.38,13.251.029h.036l1.02-11.11Z" transform="translate(-1165.268 -206.129)"/><path class="f" d="M1152.6,224.663l1.57,48.653-3.417-.818-.706-8.68L1141,263.8l1.518,17.451,20.331,5.694.138-62.257Z" transform="translate(-1121.517 -206.074)"/></g><text class="h" transform="translate(41.566 8.502)"><tspan x="-12.673" y="0">JS</tspan></text></g></g></svg>