<svg xmlns="http://www.w3.org/2000/svg" width="452" height="210" viewBox="0 0 452 210"><defs><style>.a{fill:#f6f6f6;}.b{fill:#e44d26;}.c{fill:#f77478;}.d{fill:#fff;}.e{fill:#222;font-size:22px;font-family:DINBold, DIN;letter-spacing:-0.05em;}</style></defs><rect class="a" width="452" height="210"/><g transform="translate(0 32)"><g transform="translate(-913.623 -109.195)"><g transform="translate(1089.623 140.124)"><g transform="translate(0 0)"><path class="b" d="M1139.782,290.241l-41.2-11.536-8.959-103.065,100.95.223-9.426,103.009Z" transform="translate(-1089.623 -175.64)"/><path class="c" d="M1239.547,283.552l8.055-88.026-41.265-.091-.216,97.3Z" transform="translate(-1155.882 -186.898)"/></g><g transform="translate(19.516 21.656)"><path class="d" d="M291.97,505.776h29.349s-6.51-14.785-4.855-28.356,12.357-19.75,18.426-20.412a11.237,11.237,0,0,1,9.378,3.089l1.324-1.986s-8.716-8.827-19.75-7.834-18.647,8.275-23.391,17.1-7.5,15.006-9.378,24.274S291.97,505.776,291.97,505.776Z" transform="translate(-285.461 -446.747)"/><path class="d" d="M281.189,522.675l5.737.441-.993,5.737-5.406-.662Z" transform="translate(-280.527 -478.431)"/><path class="d" d="M293.75,496.226l1.545-4.3-5.076-1.986-1.655,4.634Z" transform="translate(-284.041 -464.119)"/><path class="d" d="M307.435,470.129l2.979-3.53-3.862-2.538-3.089,3.42Z" transform="translate(-290.554 -452.807)"/><path class="d" d="M324.438,449.077l2.648,3.2,3.641-2.1-2.648-2.979Z" transform="translate(-299.724 -445.436)"/><path class="d" d="M347.375,444.065l.662,3.2,4.524-.11-.442-2.869Z" transform="translate(-309.751 -444.065)"/><path class="d" d="M374.538,450.142l-.11,1.986,3.089,1.655.662-.993Z" transform="translate(-321.578 -446.722)"/><path class="d" d="M373.447,465.237v1.655l2.979.331V465.9Z" transform="translate(-321.149 -453.321)"/><path class="d" d="M356.589,467.185l1.434,2.648,2.1-1.655-.441-1.766Z" transform="translate(-313.779 -453.834)"/><path class="d" d="M346.75,473.863l2.207,3.31-1.324,2.317-3.2-3.53Z" transform="translate(-308.465 -457.092)"/><path class="d" d="M339.6,490.133,338.161,493l3.751,3.2.883-3.641Z" transform="translate(-305.723 -464.205)"/><path class="d" d="M337.794,507.972l-.221,3.862,4.634,1.986-.221-3.642Z" transform="translate(-305.466 -472.003)"/><path class="d" d="M340.317,532.281l1.1,3.972,5.847.331-2.1-4.3Z" transform="translate(-306.665 -482.63)"/></g></g></g><text class="e" transform="translate(226 19)"><tspan x="-61.05" y="0">Ruby on Rails</tspan></text></g></svg>